<svg id="Layer_1" xmlns="http://www.w3.org/2000/svg" viewBox="0 0 149 54"><style>.st0{fill:gray}</style><g id="socials"><path id="path-1" class="st0" d="M.4 13.6h2.7v11.3c0 .2.2.4.4.4h4.6c.2 0 .4-.2.4-.4V13.6h3.1c.2 0 .4-.2.4-.4l.5-4.2c0-.1 0-.2-.1-.3-.1-.1-.2-.1-.3-.1H8.6V6.1c0-.8.4-1.2 1.3-1.2h2.4c.2 0 .4-.2.4-.4V.7c0-.2-.2-.4-.4-.4H8.9h-.2c-.6 0-2.5.1-4.1 1.5C3 3.4 3.2 5.3 3.3 5.6v3H.4c-.2.1-.4.3-.4.5v4.1c0 .2.2.4.4.4z"/><path id="path-2" class="st0" d="M44.3 1.3c-1.2.7-2.5 1.2-3.9 1.5-1.1-1.2-2.7-2-4.5-2-3.4 0-6.2 2.8-6.2 6.2 0 .5.1 1 .2 1.4-5.3-.2-9.8-2.7-12.9-6.5-.5.9-.8 2-.8 3.1 0 2.2 1.1 4.1 2.8 5.2-1 0-2-.3-2.8-.8v.1c0 3 2.1 5.5 5 6.1-.5.1-1.1.2-1.6.2-.4 0-.8 0-1.2-.1.8 2.5 3.1 4.3 5.8 4.3-2.1 1.7-4.8 2.7-7.7 2.7-.5 0-1 0-1.5-.1 2.7 1.8 6 2.8 9.5 2.8C35.8 25.4 42 16 42 7.7v-.8c1.2-.9 2.3-2 3.1-3.2-1.1.5-2.3.8-3.6 1 1.3-.8 2.3-2 2.8-3.4z"/><path id="path-4" class="st0" d="M144.8 24.7h-23.6c-2.3 0-4.2-1.9-4.2-4.2V4.2c0-2.3 1.9-4.2 4.2-4.2h23.6c1.1 0 2.2.4 3 1.2.8.8 1.2 1.9 1.2 3v16.3c0 2.4-1.9 4.2-4.2 4.2zm1.7-4.2V4.3c0-.9-.8-1.7-1.7-1.7h-23.6c-.9 0-1.7.8-1.7 1.7v16.3c0 .9.8 1.7 1.7 1.7h23.6c.9 0 1.6-.7 1.7-1.6v-.2zm-1.1-.4c0 .3-.1.7-.3.9-.2.3-.6.4-.9.4-.3 0-.6-.1-.9-.3l-7.5-7.2-1.9 1.7c-.2.2-.5.3-.8.3-.3 0-.6-.1-.8-.3l-1.9-1.7-7.6 7.1c-.2.2-.5.3-.8.3-.3 0-.7-.1-.9-.4-.5-.5-.4-1.3.1-1.8l7.4-7-7.6-6.6c-.2-.2-.4-.5-.4-.9 0-.3.1-.7.3-.9.2-.3.6-.4.9-.4.3 0 .6.1.8.3l8.4 7.5c.1 0 .1.1.2.1l.1.1L133 13l10.3-9.3c.2-.2.5-.3.8-.3.4 0 .7.2.9.4.5.5.4 1.3-.1 1.8l-7.4 6.6 7.4 7.1c.4.2.5.5.5.8z"/><path id="path-5" class="st0" d="M72.8 13c0 7.2-5.8 13-12.9 13C52.8 26 47 20.2 47 13S52.8 0 59.9 0c2.9 0 5.6.9 7.9 2.7l-3 3.9C63.4 5.5 61.7 5 59.9 5c-4.4 0-8 3.6-8 8s3.6 8 8 8c3.5 0 6.6-2.3 7.6-5.6h-7.6v-4.9h12.9V13zm13.6 1.6h-3.7v3.7h-3.2v-3.7h-3.7v-3.2h3.7V7.7h3.2v3.7h3.7v3.2z"/><path id="path-6" d="M.4 41.6h2.7v11.3c0 .2.2.4.4.4h4.6c.2 0 .4-.2.4-.4V41.6h3.1c.2 0 .4-.2.4-.4l.5-4.2c0-.1 0-.2-.1-.3-.1-.1-.2-.1-.3-.1H8.6V34c0-.8.4-1.2 1.3-1.2h2.4c.2 0 .4-.2.4-.4v-3.8c0-.2-.2-.4-.4-.4H8.9h-.2c-.6 0-2.5.1-4.1 1.5-1.7 1.6-1.5 3.5-1.4 3.8v3H.4c-.2 0-.4.2-.4.4V41c0 .4.2.6.4.6z" fill="#3b5998"/><path id="path-7" d="M44.3 29.3c-1.2.7-2.5 1.2-3.9 1.5-1.1-1.2-2.7-2-4.5-2-3.4 0-6.2 2.8-6.2 6.2 0 .5.1 1 .2 1.4-5.2-.3-9.7-2.7-12.8-6.5-.5.9-.8 2-.8 3.1 0 2.2 1.1 4.1 2.8 5.2-1 0-2-.3-2.8-.8v.1c0 3 2.1 5.5 5 6.1-.5.1-1.1.2-1.6.2-.4 0-.8 0-1.2-.1.8 2.5 3.1 4.3 5.8 4.3-2.1 1.7-4.8 2.7-7.7 2.7-.5 0-1 0-1.5-.1 2.7 1.8 6 2.8 9.5 2.8C35.8 53.4 42 44 42 35.7v-.8c1.2-.9 2.3-2 3.1-3.2-1.1.5-2.3.8-3.6 1 1.3-.8 2.3-2 2.8-3.4z" fill="#55acee"/><path id="path-9" d="M144.8 52.7h-23.6c-2.3 0-4.2-1.9-4.2-4.2V32.2c0-2.3 1.9-4.2 4.2-4.2h23.6c1.1 0 2.2.4 3 1.2.8.8 1.2 1.9 1.2 3v16.3c0 2.4-1.9 4.2-4.2 4.2zm1.7-4.2V32.3c0-.9-.8-1.7-1.7-1.7h-23.6c-.9 0-1.7.8-1.7 1.7v16.3c0 .9.8 1.7 1.7 1.7h23.6c.9 0 1.6-.7 1.7-1.6v-.2zm-1.1-.4c0 .3-.1.7-.3.9-.2.3-.6.4-.9.4-.3 0-.6-.1-.9-.3l-7.5-7.2-1.9 1.7c-.2.2-.5.3-.8.3-.3 0-.6-.1-.8-.3l-1.9-1.7-7.6 7.1c-.2.2-.5.3-.8.3-.3 0-.7-.1-.9-.4-.5-.5-.4-1.3.1-1.8l7.4-7-7.4-6.7c-.2-.2-.4-.5-.4-.9 0-.3.1-.7.3-.9.2-.3.6-.4.9-.4.3 0 .6.1.8.3l8.4 7.5c.1 0 .1.1.2.1l.1.1L133 41l10.3-9.3c.2-.2.5-.3.8-.3.4 0 .7.2.9.4.5.5.4 1.3-.1 1.8l-7.4 6.6 7.4 7.1c.4.2.5.5.5.8z" fill="#f60"/><path id="path-10" d="M72.8 41c0 7.2-5.8 13-12.9 13C52.8 54 47 48.2 47 41s5.8-13 12.9-13c2.9 0 5.6.9 7.9 2.7l-3 3.9c-1.4-1.1-3.1-1.7-4.9-1.7-4.4 0-8 3.6-8 8s3.6 8 8 8c3.5 0 6.6-2.3 7.6-5.6h-7.6v-4.9h12.9V41zm13.6 1.6h-3.7v3.7h-3.2v-3.7h-3.7v-3.2h3.7v-3.7h3.2v3.7h3.7v3.2z" fill="#dd4b39"/></g><radialGradient id="SVGID_1_" cx="96.32" cy="53.788" r="26.101" gradientUnits="userSpaceOnUse"><stop offset="0" stop-color="#ffd676"/><stop offset=".246" stop-color="#f2a454"/><stop offset=".379" stop-color="#f05c3c"/><stop offset=".7" stop-color="#c22f86"/><stop offset=".957" stop-color="#6666ad"/><stop offset=".985" stop-color="#5c6cb2"/></radialGradient><path d="M114.7 48.2c0 3.1-2.5 5.7-5.6 5.7H94.4c-3.1 0-5.6-2.5-5.6-5.7V33.7c0-3.1 2.5-5.7 5.6-5.7H109c3.1 0 5.6 2.5 5.6 5.7v14.5z" fill="url(#SVGID_1_)"/><path d="M110.4 45.1c0 2.7-2.2 4.8-4.8 4.8h-7.8c-2.7 0-4.8-2.2-4.8-4.8v-8.3c0-2.7 2.2-4.8 4.8-4.8h7.8c2.7 0 4.8 2.2 4.8 4.8v8.3z" fill="none" stroke="#fff" stroke-width="1.415" stroke-miterlimit="10"/><path d="M106 40.9c-.1 2.4-1.9 4.3-4.3 4.3s-4.3-1.9-4.3-4.3 1.9-4.3 4.3-4.3c2.9.1 4.4 2 4.3 4.3z" fill="none" stroke="#fff" stroke-width="1.73" stroke-miterlimit="10"/><circle cx="107" cy="35.7" r="1.2" fill="#fff"/><g><path class="st0" d="M114.7 20.2c0 3.1-2.5 5.7-5.6 5.7H94.4c-3.1 0-5.6-2.5-5.6-5.7V5.7c0-3.1 2.5-5.7 5.6-5.7H109c3.1 0 5.6 2.5 5.6 5.7v14.5z"/><path d="M110.4 17.1c0 2.7-2.2 4.8-4.8 4.8h-7.8c-2.7 0-4.8-2.2-4.8-4.8V8.8C93 6.1 95.2 4 97.9 4h7.8c2.7 0 4.8 2.2 4.8 4.8v8.3z" fill="none" stroke="#000" stroke-width="1.415" stroke-miterlimit="10"/><path d="M106 12.9c-.1 2.4-1.9 4.3-4.3 4.3s-4.3-1.9-4.3-4.3 1.9-4.3 4.3-4.3c2.9.1 4.4 2 4.3 4.3z" fill="none" stroke="#000" stroke-width="1.73" stroke-miterlimit="10"/><circle cx="107" cy="7.6" r="1.2"/></g></svg>