<svg height="32" preserveAspectRatio="xMidYMid" viewBox="0 0 45 32" width="45" xmlns="http://www.w3.org/2000/svg"><path d="m43.246 2.752c-1.624-1.95-4.623-2.745-10.351-2.745h-20.791c-5.858 0-8.908.846-10.526 2.923-1.578 2.024-1.578 5.007-1.578 9.136v7.868c0 7.999 1.872 12.059 12.104 12.059h20.791c4.967 0 7.719-.702 9.5-2.423 1.826-1.765 2.605-4.646 2.605-9.636v-7.868c0-4.354-.122-7.355-1.754-9.314zm-13.133 14.644s-10.711 5.422-10.711 5.422c-.239.121-.501.181-.763.181-.296 0-.592-.077-.853-.23-.493-.29-.794-.807-.794-1.365v-10.81c0-.557.3-1.073.792-1.363.492-.289 1.104-.309 1.614-.052 0 0 10.711 5.387 10.711 5.387.545.274.887.819.888 1.413.001.595-.34 1.141-.884 1.417z" fill="#e02d28" fill-rule="evenodd"/></svg>