<svg viewBox="0 0 640 120" xmlns="http://www.w3.org/2000/svg" xmlns:xlink="http://www.w3.org/1999/xlink"><linearGradient id="a"><stop offset="0" stop-color="#0073a2"/><stop offset=".01" stop-color="#0174a3" stop-opacity=".99"/><stop offset=".263" stop-color="#1091be" stop-opacity=".737"/><stop offset=".514" stop-color="#1ba5d1" stop-opacity=".486"/><stop offset=".761" stop-color="#22b2dc" stop-opacity=".239"/><stop offset="1" stop-color="#24b6e0" stop-opacity="0"/></linearGradient><linearGradient id="b" gradientUnits="userSpaceOnUse" x1="305.264" x2="303.509" xlink:href="#a" y1="52.767" y2="55.805"/><linearGradient id="c" gradientTransform="matrix(-1 0 0 1 3125.795 0)" gradientUnits="userSpaceOnUse" x1="2781.145" x2="2779.391" xlink:href="#a" y1="52.767" y2="55.805"/><g fill="#fff"><path d="m61.5 63.2 7.6-22.8h9.6v1.2l-12.8 38.5h-8.5l-5-13.7-4.8 13.7h-8.5l-12.8-38.5v-1.2h9.6l7.6 22.8 5-13.8h8.2zm39.5 10.8h-13.5l-2.2 5.8h-10.3l15.8-39.9h6.9l16.3 39.9h-10.9zm-9.7-9.8-.3.9h6.5l-.2-.7-3-8.6zm33.7 2.3v13.4h-9.6v-39.5h15.3c15.7 0 18 19.3 5.9 25.1l8.4 12.5v1.8h-10.3l-8.2-13.4h-1.5zm0-8.8h5.5c5.8 0 5.9-8.1 0-8.1h-5.5z"/><path d="m156.5 66.5v13.4h-9.6v-39.5h15.3c15.7 0 18 19.3 5.9 25.1l8.5 12.5v1.8h-10.3l-8.3-13.3zm0-8.8h5.5c5.8 0 5.9-8.1 0-8.1h-5.5z"/><path d="m201.3 49.2h-6.5v22h6.5v8.6h-22.7v-8.6h6.5v-22h-6.5v-8.8h22.7zm21.3-9.4c11.3 0 20.5 8.8 20.5 20.4 0 11.4-9.2 20.2-20.5 20.2s-20.4-8.6-20.4-20.2 9.1-20.4 20.4-20.4zm10.8 20.4c0-14.9-21.6-14.9-21.6 0 0 14.8 21.6 14.7 21.6 0zm22.3 6.3v13.4h-9.6v-39.5h15.3c15.7 0 18 19.3 5.9 25.1l8.5 12.5v1.8h-10.3l-8.2-13.4h-1.6zm0-8.8h5.5c5.8 0 5.9-8.1 0-8.1h-5.5zm128.4 22.1v-30.4h-10.7v-9h30.9v9h-10.6v30.4zm32.9-13.3v13.4h-9.6v-39.5h15.3c15.7 0 18 19.3 5.9 25.1l8.5 12.5v1.8h-10.3l-8.2-13.4h-1.6zm0-8.8h5.5c5.8 0 5.9-8.1 0-8.1h-5.5zm47.1 16.3h-13.5l-2.2 5.8h-10.3l15.8-39.9h6.9l16.4 39.9h-10.9zm-9.6-9.8-.3.9h6.5l-.2-.7-3-8.6zm38.4-23.8c13 0 19.6 9.9 19.6 19.8s-6.5 19.7-19.6 19.7h-14.9v-39.5zm0 30.2c6.7 0 10-5.3 10-10.5s-3.4-10.7-10-10.7h-5.3v21.1h5.3zm43.3-21.4h-6.5v22h6.5v8.6h-22.7v-8.6h6.5v-22h-6.5v-8.8h22.7zm3 30.6v-39.4h7.4l13.6 19.7v-19.7h9.5v39.5h-7.6l-13.5-19.2v19.2h-9.4zm43.3-19.6c0 6.7 4.4 11.1 10.2 11.1 2.6 0 5.7-.8 7.8-3.7h-12.1v-8.6h24.1c0 4.6-.8 7.4-1.4 8.9-2.8 7.6-11 12.6-18.4 12.6-11.4 0-20-8.5-20-20.3s8.8-20.3 20-20.3c7.7 0 18.1 4.2 19.7 16.6h-10.1c-1.4-5.6-6-7.2-9.6-7.2-5.8-.1-10.2 4.5-10.2 10.9zm-224.5 22.7-30.2 17.6c-1.8 1-4 1-5.8 0l-30.2-17.6c-1.8-1-2.9-2.9-2.9-5v-35.4c0-2 1.1-3.9 2.9-5l30.2-17.6c1.8-1 4-1 5.8 0l30.2 17.7c1.8 1 2.9 2.9 2.9 5v35.4c0 2-1.1 3.9-2.9 4.9z"/></g><path d="m325 103c-1.3 0-2.6-.3-3.8-1l-30.2-17.6c-2.3-1.3-3.7-3.8-3.7-6.5v-35.4c0-2.6 1.4-5.1 3.7-6.5l30.2-17.6c2.3-1.4 5.2-1.4 7.6 0l30.2 17.6c2.3 1.3 3.7 3.8 3.7 6.5v35.4c0 2.6-1.4 5.1-3.7 6.5l-30.3 17.6c-1.1.7-2.4 1-3.7 1zm0-82.1c-.7 0-1.4.2-2 .5l-30.2 17.6c-1.2.7-2 2-2 3.5v35.4c0 1.4.8 2.8 2 3.5l30.1 17.6c1.3.7 2.8.7 4.1 0l30.2-17.6c1.2-.7 2-2 2-3.5v-35.4c0-1.4-.8-2.8-2-3.5l-30.2-17.6c-.6-.3-1.3-.5-2-.5z" fill="#008cc1"/><path d="m325 26.7-6.4 17.8s-.5 1.5-2.6 1-6.5-1.5-6.5-1.5-1.5-.5-.7-1.8l5.4-8.2s-13 5.4-13.9 6.9-1.8 10.3-1.5 12.2 4.2 16.5 5 17.4 7.8 7.9 9.6 10.5c1.7 2.6 6.6 11 11.8 13.7v-3.7s-1.6-3.3-2.8-9.8-1.9-12.8-2.6-14.1-2.8-2.3-4.2-2.7-3.6-1-3.6-1-.8-.3-1.4-1.6c-.6-1.2-3.4-7.4-5-9l19.6 4.9" fill="#24b6e0"/><path d="m325 26.7 6.4 17.8s.5 1.5 2.6 1 6.5-1.5 6.5-1.5 1.5-.5.7-1.8l-5.4-8.2s13 5.4 13.9 6.9 1.8 10.3 1.5 12.2-4.2 16.5-5 17.4-7.8 7.9-9.6 10.5-6.6 11-11.8 13.7v-3.7s1.6-3.3 2.8-9.8 1.9-12.8 2.6-14.1 2.8-2.3 4.2-2.7 3.6-1 3.6-1 .8-.3 1.4-1.6c.6-1.2 3.4-7.4 5-9l-19.4 5" fill="#0073a2"/><path d="m309.1 59s-2.6-5.3-3.7-6.2l-6.8-1.4" fill="url(#b)"/><path d="m340.8 59s2.6-5.3 3.7-6.2l6.8-1.4" fill="url(#c)"/><path d="m358 82.9-30.2 17.6c-1.8 1-4 1-5.8 0l-30.2-17.6c-1.8-1-2.9-2.9-2.9-5v-35.4c0-2 1.1-3.9 2.9-5l30.2-17.6c1.8-1 4-1 5.8 0l30.2 17.7c1.8 1 2.9 2.9 2.9 5v35.4c0 2-1.1 3.9-2.9 4.9z" fill="#fff"/><path d="m325 103c-1.3 0-2.6-.3-3.8-1l-30.2-17.6c-2.3-1.3-3.7-3.8-3.7-6.5v-35.4c0-2.6 1.4-5.1 3.7-6.5l30.2-17.6c2.3-1.4 5.2-1.4 7.6 0l30.2 17.6c2.3 1.3 3.7 3.8 3.7 6.5v35.4c0 2.6-1.4 5.1-3.7 6.5l-30.3 17.6c-1.1.7-2.4 1-3.7 1zm0-82.1c-.7 0-1.4.2-2 .5l-30.2 17.6c-1.2.7-2 2-2 3.5v35.4c0 1.4.8 2.8 2 3.5l30.1 17.6c1.3.7 2.8.7 4.1 0l30.2-17.6c1.2-.7 2-2 2-3.5v-35.4c0-1.4-.8-2.8-2-3.5l-30.2-17.6c-.6-.3-1.3-.5-2-.5z" fill="#008cc1"/><path d="m325 26.7-6.4 17.8s-.5 1.5-2.6 1-6.5-1.5-6.5-1.5-1.5-.5-.7-1.8l5.4-8.2s-13 5.4-13.9 6.9-1.8 10.3-1.5 12.2 4.2 16.5 5 17.4 7.8 7.9 9.6 10.5c1.7 2.6 6.6 11 11.8 13.7v-3.7s-1.6-3.3-2.8-9.8-1.9-12.8-2.6-14.1-2.8-2.3-4.2-2.7-3.6-1-3.6-1-.8-.3-1.4-1.6c-.6-1.2-3.4-7.4-5-9l19.6 4.9" fill="#24b6e0"/><path d="m325 26.7 6.4 17.8s.5 1.5 2.6 1 6.5-1.5 6.5-1.5 1.5-.5.7-1.8l-5.4-8.2s13 5.4 13.9 6.9 1.8 10.3 1.5 12.2-4.2 16.5-5 17.4-7.8 7.9-9.6 10.5-6.6 11-11.8 13.7v-3.7s1.6-3.3 2.8-9.8 1.9-12.8 2.6-14.1 2.8-2.3 4.2-2.7 3.6-1 3.6-1 .8-.3 1.4-1.6c.6-1.2 3.4-7.4 5-9l-19.4 5" fill="#0073a2"/><path d="m309.1 59s-2.6-5.3-3.7-6.2l-6.8-1.4" fill="url(#b)"/><path d="m340.8 59s2.6-5.3 3.7-6.2l6.8-1.4" fill="url(#c)"/></svg>