<svg xmlns="http://www.w3.org/2000/svg" viewBox="0 0 640 120"><style>.st0{fill:#fff}.st1{fill:#008cc1}.st2{fill:#24b6e0}.st3{fill:#0073a2}</style><path d="M61.5 63.2l7.6-22.8h9.6v1.2L65.9 80.1h-8.5l-5-13.7-4.8 13.7h-8.5L26.3 41.6v-1.2h9.6l7.6 22.8 5-13.8h8.2l4.8 13.8zM101 74H87.5l-2.2 5.8H75l15.8-39.9h6.9L114 79.8h-10.9L101 74zm-9.7-9.8l-.3.9h6.5l-.2-.7-3-8.6-3 8.4zm33.7 2.3v13.4h-9.6V40.4h15.3c15.7 0 18 19.3 5.9 25.1L145 78v1.8h-10.3l-8.2-13.4H125zm0-8.8h5.5c5.8 0 5.9-8.1 0-8.1H125v8.1zM156.5 66.5v13.4h-9.6V40.4h15.3c15.7 0 18 19.3 5.9 25.1l8.5 12.5v1.8h-10.3L158 66.5h-1.5zm0-8.8h5.5c5.8 0 5.9-8.1 0-8.1h-5.5v8.1zM201.3 49.2h-6.5v22h6.5v8.6h-22.7v-8.6h6.5v-22h-6.5v-8.8h22.7v8.8zm21.3-9.4c11.3 0 20.5 8.8 20.5 20.4 0 11.4-9.2 20.2-20.5 20.2s-20.4-8.6-20.4-20.2 9.1-20.4 20.4-20.4zm10.8 20.4c0-14.9-21.6-14.9-21.6 0 0 14.8 21.6 14.7 21.6 0zm22.3 6.3v13.4h-9.6V40.4h15.3c15.7 0 18 19.3 5.9 25.1l8.5 12.5v1.8h-10.3l-8.2-13.4h-1.6zm0-8.8h5.5c5.8 0 5.9-8.1 0-8.1h-5.5v8.1zm128.4 22.1V49.4h-10.7v-9h30.9v9h-10.6v30.4h-9.6zM417 66.5v13.4h-9.6V40.4h15.3c15.7 0 18 19.3 5.9 25.1l8.5 12.5v1.8h-10.3l-8.2-13.4H417zm0-8.8h5.5c5.8 0 5.9-8.1 0-8.1H417v8.1zM464.1 74h-13.5l-2.2 5.8h-10.3l15.8-39.9h6.9l16.4 39.9h-10.9l-2.2-5.8zm-9.6-9.8l-.3.9h6.5l-.2-.7-3-8.6-3 8.4zm38.4-23.8c13 0 19.6 9.9 19.6 19.8s-6.5 19.7-19.6 19.7H478V40.4h14.9zm0 30.2c6.7 0 10-5.3 10-10.5s-3.4-10.7-10-10.7h-5.3v21.1h5.3zm43.3-21.4h-6.5v22h6.5v8.6h-22.7v-8.6h6.5v-22h-6.5v-8.8h22.7v8.8zm3 30.6V40.4h7.4l13.6 19.7V40.4h9.5v39.5h-7.6l-13.5-19.2v19.2h-9.4zm43.3-19.6c0 6.7 4.4 11.1 10.2 11.1 2.6 0 5.7-.8 7.8-3.7h-12.1V59h24.1c0 4.6-.8 7.4-1.4 8.9-2.8 7.6-11 12.6-18.4 12.6-11.4 0-20-8.5-20-20.3s8.8-20.3 20-20.3c7.7 0 18.1 4.2 19.7 16.6h-10.1c-1.4-5.6-6-7.2-9.6-7.2-5.8-.1-10.2 4.5-10.2 10.9zM358 82.9l-30.2 17.6c-1.8 1-4 1-5.8 0l-30.2-17.6c-1.8-1-2.9-2.9-2.9-5V42.5c0-2 1.1-3.9 2.9-5L322 19.9c1.8-1 4-1 5.8 0L358 37.6c1.8 1 2.9 2.9 2.9 5V78c0 2-1.1 3.9-2.9 4.9z" class="st0"/><path d="M325 103c-1.3 0-2.6-.3-3.8-1L291 84.4c-2.3-1.3-3.7-3.8-3.7-6.5V42.5c0-2.6 1.4-5.1 3.7-6.5l30.2-17.6c2.3-1.4 5.2-1.4 7.6 0L359 36c2.3 1.3 3.7 3.8 3.7 6.5v35.4c0 2.6-1.4 5.1-3.7 6.5L328.7 102c-1.1.7-2.4 1-3.7 1zm0-82.1c-.7 0-1.4.2-2 .5L292.8 39c-1.2.7-2 2-2 3.5v35.4c0 1.4.8 2.8 2 3.5L322.9 99c1.3.7 2.8.7 4.1 0l30.2-17.6c1.2-.7 2-2 2-3.5V42.5c0-1.4-.8-2.8-2-3.5L327 21.4c-.6-.3-1.3-.5-2-.5z" class="st1"/><path d="M325 26.7l-6.4 17.8s-.5 1.5-2.6 1-6.5-1.5-6.5-1.5-1.5-.5-.7-1.8l5.4-8.2s-13 5.4-13.9 6.9c-.9 1.5-1.8 10.3-1.5 12.2.3 1.9 4.2 16.5 5 17.4s7.8 7.9 9.6 10.5c1.7 2.6 6.6 11 11.8 13.7V91s-1.6-3.3-2.8-9.8c-1.2-6.5-1.9-12.8-2.6-14.1-.7-1.3-2.8-2.3-4.2-2.7s-3.6-1-3.6-1-.8-.3-1.4-1.6c-.6-1.2-3.4-7.4-5-9l19.6 4.9" class="st2"/><path d="M325 26.7l6.4 17.8s.5 1.5 2.6 1 6.5-1.5 6.5-1.5 1.5-.5.7-1.8l-5.4-8.2s13 5.4 13.9 6.9c.9 1.5 1.8 10.3 1.5 12.2-.3 1.9-4.2 16.5-5 17.4s-7.8 7.9-9.6 10.5-6.6 11-11.8 13.7V91s1.6-3.3 2.8-9.8 1.9-12.8 2.6-14.1c.7-1.3 2.8-2.3 4.2-2.7s3.6-1 3.6-1 .8-.3 1.4-1.6c.6-1.2 3.4-7.4 5-9l-19.4 5" class="st3"/><linearGradient id="SVGID_1_" x1="305.264" x2="303.509" y1="52.767" y2="55.805" gradientUnits="userSpaceOnUse"><stop offset="0" stop-color="#0073a2"/><stop offset=".01" stop-color="#0174a3" stop-opacity=".99"/><stop offset=".263" stop-color="#1091be" stop-opacity=".737"/><stop offset=".514" stop-color="#1ba5d1" stop-opacity=".486"/><stop offset=".761" stop-color="#22b2dc" stop-opacity=".239"/><stop offset="1" stop-color="#24b6e0" stop-opacity="0"/></linearGradient><path fill="url(#SVGID_1_)" d="M309.1 59s-2.6-5.3-3.7-6.2l-6.8-1.4"/><linearGradient id="SVGID_2_" x1="2781.145" x2="2779.391" y1="52.767" y2="55.805" gradientUnits="userSpaceOnUse" gradientTransform="matrix(-1 0 0 1 3125.795 0)"><stop offset="0" stop-color="#0073a2"/><stop offset=".01" stop-color="#0174a3" stop-opacity=".99"/><stop offset=".263" stop-color="#1091be" stop-opacity=".737"/><stop offset=".514" stop-color="#1ba5d1" stop-opacity=".486"/><stop offset=".761" stop-color="#22b2dc" stop-opacity=".239"/><stop offset="1" stop-color="#24b6e0" stop-opacity="0"/></linearGradient><path fill="url(#SVGID_2_)" d="M340.8 59s2.6-5.3 3.7-6.2l6.8-1.4"/><path d="M358 82.9l-30.2 17.6c-1.8 1-4 1-5.8 0l-30.2-17.6c-1.8-1-2.9-2.9-2.9-5V42.5c0-2 1.1-3.9 2.9-5L322 19.9c1.8-1 4-1 5.8 0L358 37.6c1.8 1 2.9 2.9 2.9 5V78c0 2-1.1 3.9-2.9 4.9z" class="st0"/><path d="M325 103c-1.3 0-2.6-.3-3.8-1L291 84.4c-2.3-1.3-3.7-3.8-3.7-6.5V42.5c0-2.6 1.4-5.1 3.7-6.5l30.2-17.6c2.3-1.4 5.2-1.4 7.6 0L359 36c2.3 1.3 3.7 3.8 3.7 6.5v35.4c0 2.6-1.4 5.1-3.7 6.5L328.7 102c-1.1.7-2.4 1-3.7 1zm0-82.1c-.7 0-1.4.2-2 .5L292.8 39c-1.2.7-2 2-2 3.5v35.4c0 1.4.8 2.8 2 3.5L322.9 99c1.3.7 2.8.7 4.1 0l30.2-17.6c1.2-.7 2-2 2-3.5V42.5c0-1.4-.8-2.8-2-3.5L327 21.4c-.6-.3-1.3-.5-2-.5z" class="st1"/><path d="M325 26.7l-6.4 17.8s-.5 1.5-2.6 1-6.5-1.5-6.5-1.5-1.5-.5-.7-1.8l5.4-8.2s-13 5.4-13.9 6.9c-.9 1.5-1.8 10.3-1.5 12.2.3 1.9 4.2 16.5 5 17.4s7.8 7.9 9.6 10.5c1.7 2.6 6.6 11 11.8 13.7V91s-1.6-3.3-2.8-9.8c-1.2-6.5-1.9-12.8-2.6-14.1-.7-1.3-2.8-2.3-4.2-2.7s-3.6-1-3.6-1-.8-.3-1.4-1.6c-.6-1.2-3.4-7.4-5-9l19.6 4.9" class="st2"/><path d="M325 26.7l6.4 17.8s.5 1.5 2.6 1 6.5-1.5 6.5-1.5 1.5-.5.7-1.8l-5.4-8.2s13 5.4 13.9 6.9c.9 1.5 1.8 10.3 1.5 12.2-.3 1.9-4.2 16.5-5 17.4s-7.8 7.9-9.6 10.5-6.6 11-11.8 13.7V91s1.6-3.3 2.8-9.8 1.9-12.8 2.6-14.1c.7-1.3 2.8-2.3 4.2-2.7s3.6-1 3.6-1 .8-.3 1.4-1.6c.6-1.2 3.4-7.4 5-9l-19.4 5" class="st3"/><linearGradient id="SVGID_3_" x1="305.264" x2="303.509" y1="52.767" y2="55.805" gradientUnits="userSpaceOnUse"><stop offset="0" stop-color="#0073a2"/><stop offset=".01" stop-color="#0174a3" stop-opacity=".99"/><stop offset=".263" stop-color="#1091be" stop-opacity=".737"/><stop offset=".514" stop-color="#1ba5d1" stop-opacity=".486"/><stop offset=".761" stop-color="#22b2dc" stop-opacity=".239"/><stop offset="1" stop-color="#24b6e0" stop-opacity="0"/></linearGradient><path fill="url(#SVGID_3_)" d="M309.1 59s-2.6-5.3-3.7-6.2l-6.8-1.4"/><linearGradient id="SVGID_4_" x1="2781.145" x2="2779.391" y1="52.767" y2="55.805" gradientUnits="userSpaceOnUse" gradientTransform="matrix(-1 0 0 1 3125.795 0)"><stop offset="0" stop-color="#0073a2"/><stop offset=".01" stop-color="#0174a3" stop-opacity=".99"/><stop offset=".263" stop-color="#1091be" stop-opacity=".737"/><stop offset=".514" stop-color="#1ba5d1" stop-opacity=".486"/><stop offset=".761" stop-color="#22b2dc" stop-opacity=".239"/><stop offset="1" stop-color="#24b6e0" stop-opacity="0"/></linearGradient><path fill="url(#SVGID_4_)" d="M340.8 59s2.6-5.3 3.7-6.2l6.8-1.4"/></svg>